<svg xmlns="http://www.w3.org/2000/svg" xmlns:xlink="http://www.w3.org/1999/xlink" viewBox="0 0 140.15 144.84"><defs><style>.cls-1{fill:none;}.cls-2{clip-path:url(#clip-path);}.cls-3{fill:#fff;}</style><clipPath id="clip-path" transform="translate(0 0)"><rect class="cls-1" width="140.15" height="144.84"/></clipPath></defs><g id="Layer_2" data-name="Layer 2"><g id="Layer_1-2" data-name="Layer 1"><g id="personalLogoWhiteLighter"><g class="cls-2"><g class="cls-2"><path class="cls-3" d="M47.1,56.38,53,70.84a1.94,1.94,0,0,0,2.31,1.31,1.89,1.89,0,0,0,1.31-2.31L50.71,55.38a1.93,1.93,0,0,0-2.3-1.31,1.88,1.88,0,0,0-1.31,2.31" transform="translate(0 0)"/><path class="cls-3" d="M73.21,102.57V143A1.88,1.88,0,0,0,77,143v-40.4a1.88,1.88,0,0,0-3.75,0" transform="translate(0 0)"/><path class="cls-3" d="M40.68,72.22h13.4a1.88,1.88,0,1,0,0-3.75H40.68a1.88,1.88,0,0,0,0,3.75" transform="translate(0 0)"/><path class="cls-3" d="M55.79,81.76l2,4.93a2.1,2.1,0,0,0,.86,1.12,1.89,1.89,0,0,0,1.45.19,1.93,1.93,0,0,0,1.12-.86,1.81,1.81,0,0,0,.19-1.45l-2-4.93a2,2,0,0,0-.86-1.12,1.89,1.89,0,0,0-1.45-.19,1.93,1.93,0,0,0-1.12.86,1.85,1.85,0,0,0-.19,1.45" transform="translate(0 0)"/><path class="cls-3" d="M75.77,86.83h43.87a1.88,1.88,0,0,0,0-3.75H75.77a1.88,1.88,0,0,0,0,3.75" transform="translate(0 0)"/><path class="cls-3" d="M46.37,19.67Q56.86,45.32,67.35,71q3,7.25,5.93,14.49a1.92,1.92,0,0,0,2.3,1.31,1.88,1.88,0,0,0,1.31-2.3l-21-51.3Q53,25.92,50,18.67a1.93,1.93,0,0,0-2.3-1.31,1.88,1.88,0,0,0-1.31,2.31" transform="translate(0 0)"/><path class="cls-3" d="M46,18.62Q35.45,44.93,24.89,71.23q-3,7.55-6,15.07a1.9,1.9,0,0,0,1.31,2.31,1.93,1.93,0,0,0,2.31-1.31L43.56,34.68q3-7.53,6-15.06a1.89,1.89,0,0,0-1.31-2.31A1.91,1.91,0,0,0,46,18.62" transform="translate(0 0)"/><path class="cls-3" d="M75.08,104.45h28.86a1.88,1.88,0,0,0,0-3.75H75.08a1.88,1.88,0,0,0,0,3.75" transform="translate(0 0)"/><path class="cls-3" d="M0,1.88V143a1.88,1.88,0,0,0,3.75,0V1.88A1.88,1.88,0,0,0,0,1.88" transform="translate(0 0)"/><path class="cls-3" d="M136.4,1.88V143a1.88,1.88,0,0,0,3.75,0V1.88a1.88,1.88,0,0,0-3.75,0" transform="translate(0 0)"/><path class="cls-3" d="M2.34,3.75h135a1.88,1.88,0,0,0,0-3.75H2.34a1.88,1.88,0,0,0,0,3.75" transform="translate(0 0)"/><path class="cls-3" d="M2.34,144.84H59.62a1.88,1.88,0,0,0,0-3.75H2.34a1.88,1.88,0,0,0,0,3.75" transform="translate(0 0)"/><path class="cls-3" d="M90,144.84h46.75a1.88,1.88,0,0,0,0-3.75H90a1.88,1.88,0,0,0,0,3.75" transform="translate(0 0)"/></g></g></g></g></g></svg>