<svg xmlns="http://www.w3.org/2000/svg" xmlns:xlink="http://www.w3.org/1999/xlink" viewBox="0 0 141.4 146.09"><defs><style>.cls-1{fill:none;}.cls-2{clip-path:url(#clip-path);}.cls-3{fill:#fff;}</style><clipPath id="clip-path" transform="translate(0 0)"><rect class="cls-1" width="141.4" height="146.09"/></clipPath></defs><g id="Layer_2" data-name="Layer 2"><g id="Layer_1-2" data-name="Layer 1"><g id="personalLogoWhite"><g class="cls-2"><g class="cls-2"><path class="cls-3" d="M47.12,57.17q3,7.23,5.92,14.46a2.56,2.56,0,0,0,3.07,1.75c1.16-.38,2.28-1.78,1.75-3.08q-3-7.23-5.92-14.46a2.56,2.56,0,0,0-3.08-1.75c-1.16.38-2.27,1.78-1.74,3.08" transform="translate(0 0)"/><path class="cls-3" d="M73.21,103.2v40.39c0,3.22,5,3.22,5,0V103.2c0-3.22-5-3.22-5,0" transform="translate(0 0)"/><path class="cls-3" d="M41.31,73.47h13.4a2.5,2.5,0,1,0,0-5H41.31a2.5,2.5,0,0,0,0,5" transform="translate(0 0)"/><path class="cls-3" d="M55.82,82.55l2,4.93a1.78,1.78,0,0,0,.44.85A1.85,1.85,0,0,0,59,89a2.51,2.51,0,0,0,3.42-.9,2.43,2.43,0,0,0,.25-1.93l-2-4.93a2.87,2.87,0,0,0-1.15-1.5,2.6,2.6,0,0,0-1.93-.25,2.56,2.56,0,0,0-1.49,1.15,2.43,2.43,0,0,0-.25,1.93" transform="translate(0 0)"/><path class="cls-3" d="M76.39,88.08h43.87c3.22,0,3.22-5,0-5H76.39c-3.21,0-3.22,5,0,5" transform="translate(0 0)"/><path class="cls-3" d="M46.39,20.46l21,51.29L73.3,86.24A2.58,2.58,0,0,0,76.37,88a2.52,2.52,0,0,0,1.75-3.08q-10.49-25.64-21-51.29L51.21,19.13a2.57,2.57,0,0,0-3.07-1.74,2.52,2.52,0,0,0-1.75,3.07" transform="translate(0 0)"/><path class="cls-3" d="M46,19.08Q35.46,45.39,24.91,71.69l-6,15.07a2.52,2.52,0,0,0,1.75,3.07,2.57,2.57,0,0,0,3.08-1.74L44.79,35.47l6-15.06a2.52,2.52,0,0,0-1.75-3.08A2.56,2.56,0,0,0,46,19.08" transform="translate(0 0)"/><path class="cls-3" d="M75.71,105.7h28.85c3.22,0,3.22-5,0-5H75.71c-3.22,0-3.22,5,0,5" transform="translate(0 0)"/><path class="cls-3" d="M0,2.5V143.59c0,3.22,5,3.22,5,0V2.5C5-.72,0-.72,0,2.5" transform="translate(0 0)"/><path class="cls-3" d="M136.4,2.5V143.59c0,3.22,5,3.22,5,0V2.5c0-3.22-5-3.22-5,0" transform="translate(0 0)"/><path class="cls-3" d="M3,5H138c3.22,0,3.23-5,0-5H3C-.25,0-.26,5,3,5" transform="translate(0 0)"/><path class="cls-3" d="M3,146.09H60.25c3.21,0,3.22-5,0-5H3c-3.21,0-3.22,5,0,5" transform="translate(0 0)"/><path class="cls-3" d="M90.62,146.09h46.76c3.22,0,3.22-5,0-5H90.62c-3.21,0-3.22,5,0,5" transform="translate(0 0)"/></g></g></g></g></g></svg>